<?xml version="1.0" encoding="UTF-8"?> <svg xmlns="http://www.w3.org/2000/svg" id="Layer_1" data-name="Layer 1" viewBox="0 0 251.44 50"><defs><style>.cls-1{fill:#39b899;}.cls-2{fill:#222f3e;}</style></defs><title>KB_Reviewbox_Italia</title><path class="cls-1" d="M236.5,14.56c0-.44.19-.62.62-.62h5.7c.33,0,.47.23.47.77v.49c0,.54-.14.78-.47.78H238.9v2.25h3.5c.33,0,.47.24.47.78v.48c0,.55-.14.78-.47.78h-3.5v2.52h3.93c.33,0,.47.24.47.78v.48c0,.55-.14.78-.47.78h-5.71c-.43,0-.62-.18-.62-.62Z"></path><path class="cls-1" d="M245.23,22.2a6.11,6.11,0,0,0,2.29.72c.67,0,1.46-.21,1.46-1.14,0-1.84-4.5-1.12-4.5-4.78,0-2.29,1.87-3.19,3.69-3.19,1.65,0,2.8.58,2.8,1.09s-.48,1.36-.85,1.36a5,5,0,0,0-1.73-.39c-1.21,0-1.45.56-1.45.91,0,1.78,4.5,1.06,4.5,4.72A3.23,3.23,0,0,1,247.92,25c-2.36,0-3.65-.84-3.65-1.37S244.9,22.2,245.23,22.2Z"></path><path class="cls-2" d="M62.91,15.42c0-.89.38-1.28,1.28-1.28h6.22c5.51,0,7.94,2.17,7.94,6a5.35,5.35,0,0,1-3.73,5.07v.13a5.53,5.53,0,0,1,2.29,2.93l2.81,7a2.07,2.07,0,0,1,.16.6c0,.39-.61.64-1.92.64h-1.3c-.93,0-1.66-.16-1.85-.67l-2.52-6.22c-.64-1.27-1.15-1.91-3.22-1.91H67.82v7.78c0,.67-.57,1-1.91,1H64.82c-1.34,0-1.91-.35-1.91-1Zm7.94,8.07a2.63,2.63,0,0,0,2.46-2.74,2.39,2.39,0,0,0-2.68-2.43H67.82v5.17Z"></path><path class="cls-2" d="M82.36,15.42c0-.89.39-1.28,1.28-1.28H95.31c.67,0,1,.48,1,1.6v1c0,1.11-.29,1.59-1,1.59h-8V23h7.17c.67,0,1,.47,1,1.59v1c0,1.12-.29,1.59-1,1.59H87.28v5.17h8.07c.67,0,1,.48,1,1.6v1c0,1.12-.28,1.6-1,1.6H83.64c-.89,0-1.28-.38-1.28-1.28Z"></path><path class="cls-2" d="M97.86,15.35a2.43,2.43,0,0,1-.12-.57c0-.45.6-.7,1.94-.7h1c.93,0,1.66.22,1.89.92l4.65,14.93h.13L112.18,15c.23-.67,1-.92,1.89-.92h1c1.34,0,1.92.25,1.92.7a1.9,1.9,0,0,1-.1.57L110,35.86c-.16.51-.86.67-1.78.67h-1.66c-.93,0-1.63-.16-1.79-.67Z"></path><path class="cls-2" d="M119.26,15.1c0-.67.58-1,1.92-1h1.11c1.34,0,1.92.38,1.92,1V35.51c0,.67-.58,1.05-1.92,1.05h-1.11c-1.34,0-1.92-.38-1.92-1.05Z"></path><path class="cls-2" d="M128.45,15.42c0-.89.38-1.28,1.27-1.28H141.4c.67,0,.95.48.95,1.6v1c0,1.11-.28,1.59-.95,1.59h-8V23h7.18c.67,0,1,.47,1,1.59v1c0,1.12-.28,1.59-1,1.59h-7.18v5.17h8.07c.67,0,1,.48,1,1.6v1c0,1.12-.29,1.6-1,1.6H129.72c-.89,0-1.27-.38-1.27-1.28Z"></path><path class="cls-2" d="M143.6,15.39a1.29,1.29,0,0,1-.07-.48c0-.51.61-.83,2-.83h.83c1.24,0,2,.32,2.14,1l2.39,10.27c.25,1.08.6,2.8,1,4.59a42.52,42.52,0,0,1,1.08-4.59l2.62-10.59c.12-.51.73-.67,1.75-.67h1.21c1,0,1.63.16,1.76.67l2.52,10.59c.28,1.21.7,3,1.08,4.81.42-1.75.8-3.6,1.09-4.81l2.48-10.27c.16-.67.9-1,2.14-1h.35c1.37,0,2,.32,2,.83a2.52,2.52,0,0,1-.07.48l-5.19,20.47c-.13.45-.87.67-1.76.67h-2.33c-.89,0-1.66-.22-1.75-.67l-3.13-13.2-3.25,13.2c-.13.45-.86.67-1.75.67h-2.3c-1,0-1.66-.22-1.75-.67Z"></path><path class="cls-2" d="M174,15.42c0-.89.38-1.28,1.28-1.28h6.31c5.39,0,7.53,2.3,7.53,5.65a5.45,5.45,0,0,1-3.45,4.85l0,.12A5.37,5.37,0,0,1,190,30c0,4.12-2.58,6.48-8,6.48h-6.76c-.9,0-1.28-.38-1.28-1.28ZM181.1,23c1.92,0,3-1.05,3-2.39,0-1.56-1-2.36-2.9-2.36H178.9V23Zm.93,9.25c1.85,0,2.93-.92,2.93-2.58s-1.24-2.49-3.44-2.49H178.9v5.07Z"></path><path class="cls-2" d="M202.37,13.89c6.57,0,10.21,4.05,10.21,11.42s-3.64,11.41-10.21,11.41-10.23-4-10.23-11.41S195.8,13.89,202.37,13.89Zm5.17,11.42c0-4.69-1.75-7.21-5.17-7.21s-5.19,2.52-5.19,7.21,1.78,7.24,5.19,7.24S207.54,30,207.54,25.31Z"></path><path class="cls-2" d="M214.59,35.13l6.57-10.3-5.84-9.35a1.74,1.74,0,0,1-.32-.79c0-.36.64-.61,2-.61h1.31c.93,0,1.63.13,1.91.61l3.64,5.93,3.83-5.93c.35-.55,1-.61,1.94-.61h1.25c1.37,0,2,.22,2,.61a1.54,1.54,0,0,1-.32.79l-6,9.41L233,35.13a1.63,1.63,0,0,1,.29.8c0,.38-.61.6-2,.6H230c-.92,0-1.62-.13-1.91-.6l-4.24-6.86-4.4,6.86c-.39.57-1,.6-1.95.6h-1.21c-1.41,0-2-.22-2-.6A1.57,1.57,0,0,1,214.59,35.13Z"></path><path class="cls-2" d="M49,0H15.11a2,2,0,0,0-1.34.54L.58,13.4A1.91,1.91,0,0,0,0,14.77V48.08A1.92,1.92,0,0,0,1.92,50H36.63A1.88,1.88,0,0,0,38,49.46L50.29,37.58a1.9,1.9,0,0,0,.59-1.38V1.92A1.92,1.92,0,0,0,49,0ZM31.75,25.63,15.64,41.74a1,1,0,0,1-1.37,0L5.65,33.12a1,1,0,0,1,0-1.37l2-2a1,1,0,0,1,1.37,0l5.21,5.21a1,1,0,0,0,1.37,0l12.7-12.7a1,1,0,0,1,1.37,0l2,2A1,1,0,0,1,31.75,25.63ZM47.16,35a.94.94,0,0,1-.29.69L39,43.27a1,1,0,0,1-1.62-.69V14.92a1,1,0,0,0-1-1H7.69A1,1,0,0,1,7,12.32l8.26-8.06a1.92,1.92,0,0,1,1.34-.54H45.24a1.92,1.92,0,0,1,1.92,1.91Z"></path></svg> 